<svg xmlns="http://www.w3.org/2000/svg" width="66" height="34" viewBox="0 0 66 34"><path fill="#c41230" d="M32.94 0C14.75 0 0 7.42 0 16.56c0 9.15 14.75 16.57 32.94 16.57 18.2 0 32.95-7.42 32.95-16.57C65.89 7.42 51.15 0 32.94 0zm0 31.04c-16.03 0-29.09-6.49-29.09-14.48 0-7.98 13.06-14.47 29.09-14.47 16.04 0 29.09 6.5 29.09 14.47 0 7.99-13.05 14.48-29.09 14.48z"/><path fill="#c41230" d="M30.05 9.02h.53c.19 0 .33.15.33.33v15.14c0 .2.16.36.36.36h3.96c.2 0 .36-.16.36-.36V8.36a.36.36 0 0 0-.36-.36h-5.18c-.05 0-.05.05-.05.09v.84c0 .04 0 .09.05.09zM39.32 24.84h3.89c.2 0 .4-.15.47-.35L47 14.04s.03-.15.16-.15c.12 0 .15.15.15.15l3.35 10.45c.08.2.28.35.47.35h3.88c.14 0 .22-.07.26-.12a.4.4 0 0 0 .06-.31L49.92 8.24c-.08-.21-.29-.24-.47-.24h-6.2c-.04 0-.09.04-.09.09v.84c0 .05.05.09.09.09h.45c.2 0 .33.11.33.29a.8.8 0 0 1-.03.19l-4.99 14.92c-.02.1-.01.21.06.3a.3.3 0 0 0 .25.12zM12.59 8.99c.18 0 .33.15.33.34v15.14c0 .2.16.36.36.36h3.85c.19 0 .34-.16.34-.36V18.1c0-.14.06-.21.18-.21.13 0 .19.08.24.16l.02.03 4.53 6.37c.15.22.41.38.62.38h4.57c.1 0 .22-.07.28-.18.06-.11.04-.24-.05-.36l-5.78-8.2-.04-.06c-.02-.03-.02-.05-.02-.07l-.01-.05c0-.07.03-.14.07-.21v-.01l4.84-7.18c.06-.09.06-.23 0-.34a.33.33 0 0 0-.28-.17h-4.33c-.21 0-.47.17-.62.38l-3.76 5.35c-.12.17-.24.18-.26.18a.16.16 0 0 1-.17-.17V8.36a.36.36 0 0 0-.35-.36h-5.06a.09.09 0 0 0-.09.09v.84c0 .05.04.09.09.09h.5z"/></svg>