<?xml version="1.0" standalone="no"?>
<!DOCTYPE svg PUBLIC "-//W3C//DTD SVG 20010904//EN"
 "http://www.w3.org/TR/2001/REC-SVG-20010904/DTD/svg10.dtd">
<svg version="1.0" xmlns="http://www.w3.org/2000/svg"
 width="16.000000pt" height="16.000000pt" viewBox="0 0 16.000000 16.000000"
 preserveAspectRatio="xMidYMid meet">
<metadata>
Created by potrace 1.11, written by Peter Selinger 2001-2013
</metadata>
<g transform="translate(0.000000,16.000000) scale(0.000625,-0.000625)"
fill="#000000" stroke="none">
<path d="M12215 17370 c-340 -19 -529 -32 -690 -46 -93 -8 -219 -19 -280 -25
-284 -25 -746 -87 -1120 -150 -1702 -289 -3208 -842 -4295 -1578 -478 -323
-887 -701 -1176 -1086 -247 -330 -426 -703 -503 -1052 -41 -182 -51 -285 -51
-516 0 -353 38 -558 161 -877 400 -1032 1528 -1960 3194 -2630 187 -75 195
-78 410 -154 1254 -447 2693 -715 4264 -794 192 -9 1545 -9 1731 1 416 21 860
57 1131 91 63 8 141 17 174 21 286 32 822 120 1190 196 243 50 286 59 475 105
1583 381 2899 985 3820 1753 147 123 442 416 553 550 300 362 507 746 610
1131 60 224 72 324 72 605 0 280 -11 369 -71 595 -103 387 -299 755 -590 1110
-638 777 -1722 1460 -3084 1943 -1238 439 -2574 697 -4110 793 -299 19 -1551
28 -1815 14z m1575 -585 c765 -38 1503 -130 2210 -276 187 -39 636 -145 730
-173 25 -8 81 -24 125 -36 426 -118 967 -311 1369 -489 795 -353 1490 -822
1911 -1290 386 -430 598 -838 675 -1301 29 -174 29 -446 0 -615 -129 -755
-653 -1438 -1565 -2038 -554 -364 -1286 -700 -2040 -935 -257 -81 -302 -94
-499 -146 -711 -190 -1590 -344 -2281 -401 -38 -3 -146 -12 -240 -19 -93 -8
-228 -17 -300 -21 -71 -3 -227 -10 -345 -15 -424 -19 -1151 -8 -1615 25 -713
51 -1403 147 -2015 279 -244 53 -300 66 -470 109 -1772 453 -3117 1203 -3806
2122 -179 238 -326 525 -398 773 -43 151 -46 164 -66 302 -50 347 -3 712 136
1048 94 227 229 452 400 667 105 132 390 419 529 534 672 555 1570 1009 2650
1340 848 259 1853 448 2780 521 77 6 154 13 170 15 28 4 576 31 795 39 185 7
869 -4 1160 -19z"/>
<path d="M7238 15189 c-16 -9 -18 -26 -18 -132 0 -82 4 -127 12 -135 7 -7 44
-12 95 -12 87 0 135 -15 147 -45 3 -9 6 -948 6 -2087 l0 -2070 34 -34 34 -34
546 0 c607 0 594 -1 622 65 12 29 14 177 14 915 0 956 -3 901 53 886 15 -4
104 -121 282 -371 629 -884 929 -1305 978 -1370 36 -48 69 -79 102 -97 l50
-28 638 0 c578 0 642 2 667 17 16 9 33 27 39 40 23 51 13 76 -78 203 -26 36
-79 110 -118 165 -38 55 -151 215 -251 355 -956 1351 -1142 1617 -1142 1642 0
15 18 53 43 90 24 35 119 176 212 313 93 138 219 324 280 415 61 91 197 291
301 445 103 154 253 375 331 490 79 116 151 224 159 241 20 38 14 72 -20 111
l-24 28 -607 3 c-385 1 -620 -1 -644 -8 -20 -5 -55 -25 -77 -44 -46 -39 -32
-21 -594 -816 -500 -709 -507 -718 -529 -725 -10 -3 -26 -3 -35 1 -15 6 -16
70 -16 751 0 817 2 790 -59 826 -27 16 -87 17 -723 17 -452 -1 -699 -4 -710
-11z"/>
<path d="M12117 15193 c-4 -3 -7 -69 -7 -145 l0 -138 85 0 c89 0 137 -15 149
-45 3 -9 6 -943 6 -2076 0 -2264 -5 -2101 60 -2134 43 -22 1116 -23 1160 0 65
34 60 -163 60 2258 0 1945 -2 2201 -15 2227 -32 62 -5 60 -783 60 -390 0 -712
-3 -715 -7z"/>
<path d="M15572 15188 c-17 -17 -17 -249 0 -266 7 -7 42 -12 87 -12 42 0 87
-6 101 -13 53 -27 51 -44 -48 -339 -50 -150 -348 -1040 -662 -1978 -634 -1891
-610 -1818 -610 -1842 0 -9 5 -29 12 -43 25 -55 21 -55 608 -55 599 0 586 -1
634 64 13 17 44 99 70 181 82 261 176 556 216 680 21 66 66 208 100 315 55
173 132 415 235 740 38 119 135 427 231 730 36 113 68 212 73 220 10 18 40 25
51 13 8 -7 76 -214 245 -746 25 -75 65 -201 90 -280 25 -78 63 -196 84 -262
22 -66 56 -172 76 -235 21 -63 57 -178 82 -255 254 -797 344 -1071 362 -1095
10 -14 33 -35 51 -47 l33 -23 553 0 552 0 30 25 c52 44 50 63 -27 292 -58 172
-787 2348 -1247 3723 -63 190 -126 375 -140 412 -43 113 53 103 -954 106 -679
2 -878 0 -888 -10z"/>
</g>
</svg>
